<?xml version="1.0" standalone="no"?>
<!DOCTYPE svg PUBLIC "-//W3C//DTD SVG 20010904//EN"
 "http://www.w3.org/TR/2001/REC-SVG-20010904/DTD/svg10.dtd">
<svg version="1.0" xmlns="http://www.w3.org/2000/svg"
 width="151.000000pt" height="127.000000pt" viewBox="0 0 151.000000 127.000000"
 preserveAspectRatio="xMidYMid meet">
<metadata>
Created by potrace 1.16, written by Peter Selinger 2001-2019
</metadata>
<g transform="translate(0.000000,127.000000) scale(0.100000,-0.100000)"
fill="#000000" stroke="none">
<path d="M97 1113 c-4 -3 -7 -30 -7 -60 l0 -53 86 0 85 0 -20 -26 c-20 -26
-21 -37 -21 -426 l0 -400 29 -29 29 -29 476 0 c327 0 483 3 499 11 14 6 30 22
36 36 7 16 11 150 11 417 0 383 -1 394 -21 420 l-20 26 86 0 86 0 -3 58 -3 57
-661 3 c-363 1 -664 -1 -667 -5z m1101 -185 c7 -7 12 -42 12 -85 0 -66 -2 -73
-20 -73 -19 0 -20 -7 -20 -90 l0 -90 -407 2 -408 3 -3 86 c-2 77 -5 87 -22 92
-17 4 -20 14 -20 74 0 40 5 74 12 81 17 17 859 17 876 0z m12 -566 c0 -125 -4
-182 -12 -190 -16 -16 -839 -17 -869 -2 -18 10 -19 23 -19 190 l0 180 450 0
450 0 0 -178z"/>
</g>
</svg>
