<?xml version="1.0" standalone="no"?>
<!DOCTYPE svg PUBLIC "-//W3C//DTD SVG 20010904//EN"
 "http://www.w3.org/TR/2001/REC-SVG-20010904/DTD/svg10.dtd">
<svg version="1.0" xmlns="http://www.w3.org/2000/svg"
 width="233.000000pt" height="161.000000pt" viewBox="0 0 233.000000 161.000000"
 preserveAspectRatio="xMidYMid meet">
<metadata>
Created by potrace 1.16, written by Peter Selinger 2001-2019
</metadata>
<g transform="translate(0.000000,161.000000) scale(0.100000,-0.100000)"
fill="#000000" stroke="none">
<path d="M320 1095 l0 -255 413 2 412 3 0 250 0 250 -412 3 -413 2 0 -255z"/>
<path d="M1182 1098 l3 -253 410 0 410 0 3 253 2 252 -415 0 -415 0 2 -252z"/>
<path d="M60 790 l0 -380 75 0 75 0 0 -29 c0 -16 4 -31 9 -33 5 -1 15 -50 23
-108 l13 -105 42 -3 c47 -3 44 -10 63 133 6 44 15 82 20 83 6 2 10 17 10 33
l0 29 775 0 775 0 0 -29 c0 -16 4 -31 8 -33 5 -1 15 -50 23 -108 l14 -105 42
-3 c47 -4 43 -14 62 138 6 41 15 76 21 78 5 2 10 17 10 32 0 29 0 29 73 32
l72 3 0 375 0 375 -110 0 -110 0 -3 -259 c-1 -171 -6 -264 -13 -273 -9 -11
-166 -13 -864 -13 -813 0 -853 1 -868 18 -15 16 -17 50 -17 275 l0 257 -110 0
-110 0 0 -380z"/>
<path d="M320 730 l0 -80 413 2 412 3 0 75 0 75 -412 3 -413 2 0 -80z"/>
<path d="M1187 803 c-4 -3 -7 -39 -7 -80 l0 -73 415 0 416 0 -3 78 -3 77 -406
3 c-223 1 -408 -1 -412 -5z"/>
</g>
</svg>
