<?xml version="1.0" standalone="no"?>
<!DOCTYPE svg PUBLIC "-//W3C//DTD SVG 20010904//EN"
 "http://www.w3.org/TR/2001/REC-SVG-20010904/DTD/svg10.dtd">
<svg version="1.0" xmlns="http://www.w3.org/2000/svg"
 width="365.000000pt" height="132.000000pt" viewBox="0 0 365.000000 132.000000"
 preserveAspectRatio="xMidYMid meet">
<metadata>
Created by potrace 1.16, written by Peter Selinger 2001-2019
</metadata>
<g transform="translate(0.000000,132.000000) scale(0.100000,-0.100000)"
fill="#000000" stroke="none">
<path d="M382 1188 c-17 -17 -17 -489 0 -506 9 -9 141 -12 534 -12 462 0 524
2 538 16 14 13 16 50 16 253 0 171 -3 240 -12 249 -17 17 -1059 17 -1076 0z"/>
<path d="M1516 1184 c-14 -13 -16 -50 -16 -249 0 -199 2 -236 16 -249 13 -14
66 -16 428 -16 307 0 415 3 424 12 17 17 17 489 0 506 -9 9 -117 12 -424 12
-362 0 -415 -2 -428 -16z"/>
<path d="M2426 1184 c-14 -13 -16 -50 -16 -248 0 -213 2 -234 18 -249 17 -15
61 -17 428 -17 306 0 413 3 422 12 17 17 17 489 0 506 -9 9 -117 12 -424 12
-362 0 -415 -2 -428 -16z"/>
<path d="M112 912 c-9 -7 -12 -93 -10 -398 l3 -389 115 0 115 0 3 389 c2 305
-1 391 -10 398 -7 4 -56 8 -108 8 -52 0 -101 -4 -108 -8z"/>
<path d="M3328 909 c-17 -9 -18 -39 -18 -388 0 -312 2 -381 14 -390 9 -8 51
-11 122 -9 l109 3 3 384 c1 275 -1 388 -9 397 -14 17 -194 19 -221 3z"/>
<path d="M372 520 c2 -66 6 -120 11 -120 4 0 660 0 1457 0 l1450 0 0 120 0
120 -1460 0 -1461 0 3 -120z"/>
<path d="M374 357 c-2 -7 -3 -62 -2 -123 l3 -109 1455 0 1455 0 0 120 0 120
-1453 3 c-1198 2 -1453 0 -1458 -11z"/>
</g>
</svg>
