<?xml version="1.0" standalone="no"?>
<!DOCTYPE svg PUBLIC "-//W3C//DTD SVG 20010904//EN"
 "http://www.w3.org/TR/2001/REC-SVG-20010904/DTD/svg10.dtd">
<svg version="1.0" xmlns="http://www.w3.org/2000/svg"
 width="249.000000pt" height="148.000000pt" viewBox="0 0 249.000000 148.000000"
 preserveAspectRatio="xMidYMid meet">
<metadata>
Created by potrace 1.16, written by Peter Selinger 2001-2019
</metadata>
<g transform="translate(0.000000,148.000000) scale(0.100000,-0.100000)"
fill="#000000" stroke="none">
<path d="M40 1375 l0 -54 98 -4 97 -3 -97 -2 -98 -2 0 -54 0 -55 118 -5 c64
-2 180 -9 257 -14 77 -5 239 -7 360 -3 l220 6 -315 5 c-173 3 81 5 565 5 484
0 738 -2 565 -5 -290 -5 -303 -6 -165 -12 132 -5 308 -1 688 18 l107 5 0 54 0
54 -97 4 -98 3 98 2 97 2 0 55 0 55 -1200 0 -1200 0 0 -55z m1648 -62 c-240
-2 -636 -2 -880 0 -244 1 -47 2 437 2 484 0 683 -1 443 -2z"/>
<path d="M40 1135 l0 -55 95 0 c52 0 95 2 95 5 0 4 -7 20 -16 37 -9 17 -14 39
-11 49 5 18 -2 19 -79 19 l-84 0 0 -55z"/>
<path d="M1120 1172 c0 -10 -7 -27 -15 -38 -8 -10 -15 -27 -15 -36 0 -16 14
-18 155 -18 85 0 155 3 155 8 0 4 -7 20 -16 37 -8 16 -13 37 -11 47 5 17 -5
18 -124 18 -118 0 -129 -2 -129 -18z"/>
<path d="M2293 1176 c3 -7 -3 -26 -14 -42 -33 -50 -28 -54 71 -54 l90 0 0 55
0 55 -76 0 c-60 0 -75 -3 -71 -14z"/>
<path d="M345 1120 c-4 -6 -2 -32 5 -56 12 -42 10 -122 -6 -219 l-6 -40 299 3
c164 2 302 7 307 12 5 5 4 20 -3 37 -11 27 -17 178 -10 238 l4 30 -95 -5
c-148 -8 -390 -6 -441 3 -33 6 -49 5 -54 -3z"/>
<path d="M1514 1116 c-3 -9 -1 -30 6 -47 12 -28 12 -47 -3 -233 l-2 -29 295 2
c162 1 299 6 304 11 6 6 5 24 -3 47 -11 37 -17 167 -10 228 l4 30 -95 -5
c-147 -8 -390 -6 -442 4 -40 7 -49 6 -54 -8z"/>
<path d="M40 1015 l0 -55 95 0 95 0 0 55 0 55 -95 0 -95 0 0 -55z"/>
<path d="M1090 1046 c0 -13 3 -38 6 -55 l7 -31 148 0 149 0 0 55 0 55 -155 0
-155 0 0 -24z"/>
<path d="M2260 1053 c0 -10 3 -35 6 -55 l7 -38 83 0 84 0 0 55 0 55 -90 0
c-79 0 -90 -2 -90 -17z"/>
<path d="M40 895 l0 -55 84 0 c93 0 88 -3 102 73 l6 37 -96 0 -96 0 0 -55z"/>
<path d="M1106 908 c3 -24 7 -49 10 -55 2 -10 38 -13 133 -13 71 0 132 3 134
8 3 4 8 28 12 55 l7 47 -151 0 -151 0 6 -42z"/>
<path d="M2277 908 c8 -70 6 -68 88 -68 l75 0 0 55 0 55 -84 0 -84 0 5 -42z"/>
<path d="M1125 795 c-9 -14 -65 -16 -440 -18 -237 -1 -437 -6 -446 -10 -11 -5
-22 -3 -32 7 -10 10 -34 16 -67 16 -41 0 -56 -5 -75 -25 -24 -24 -25 -28 -25
-185 l0 -160 1200 0 1200 0 0 160 c0 159 0 161 -25 186 -23 23 -32 25 -83 21
-31 -3 -246 -7 -477 -9 -231 -3 -431 -6 -445 -9 -19 -3 -27 2 -35 19 -9 21
-15 22 -125 22 -93 0 -117 -3 -125 -15z"/>
<path d="M40 220 l0 -170 1200 0 1200 0 0 170 0 170 -1200 0 -1200 0 0 -170z"/>
</g>
</svg>
