<?xml version="1.0" standalone="no"?>
<!DOCTYPE svg PUBLIC "-//W3C//DTD SVG 20010904//EN"
 "http://www.w3.org/TR/2001/REC-SVG-20010904/DTD/svg10.dtd">
<svg version="1.0" xmlns="http://www.w3.org/2000/svg"
 width="129.000000pt" height="156.000000pt" viewBox="0 0 129.000000 156.000000"
 preserveAspectRatio="xMidYMid meet">
<metadata>
Created by potrace 1.16, written by Peter Selinger 2001-2019
</metadata>
<g transform="translate(0.000000,156.000000) scale(0.100000,-0.100000)"
fill="#000000" stroke="none">
<path d="M140 1260 l0 -250 -55 0 -55 0 0 -490 0 -490 75 0 75 0 0 295 0 295
463 -2 462 -3 3 -292 2 -293 70 0 70 0 0 490 0 490 -55 0 -55 0 0 250 0 250
-500 0 -500 0 0 -250z m850 -445 l0 -55 -350 0 -350 0 0 55 0 55 350 0 350 0
0 -55z"/>
</g>
</svg>
